<?xml version="1.0" encoding="utf-8"?>
<!-- Generator: Adobe Illustrator 25.4.1, SVG Export Plug-In . SVG Version: 6.00 Build 0)  -->
<svg version="1.1" id="Layer_1" xmlns="http://www.w3.org/2000/svg" xmlns:xlink="http://www.w3.org/1999/xlink" x="0px" y="0px"
	 viewBox="0 0 467.33 540.23" style="enable-background:new 0 0 467.33 540.23;" xml:space="preserve">
<style type="text/css">
	.st0{fill:#FFFFFF;}
</style>
<path d="M289.94,38.31C222.33,20.69,152.33,1.2,106.29,0.43C39.02,0.69,4.05,35.45,0,105.1c7.57,72.69,22.67,142.64,44.2,210.26
	c5.44,52.45,14.25,94.24,20.22,126.07c12.82,68.38,44.56,98.84,73.17,98.79c30.29-0.06,54.74-39.36,63.65-94.75
	c16.42-142.02,52.06-111.11,66.2-2.34c9.78,75.25,39.67,97.82,64.76,97.08c28.47-0.83,61.21-29.5,72.07-98.2
	c4.71-29.81,11.81-66.22,16.11-109.96c24.35-86.26,43.58-168.03,46.96-235.83c-7.1-57.67-35.68-87.6-88.3-95.8
	c-33.99-2.27-79.82,4.82-123.26,14.09C276.02,24.09,289.41,32.39,289.94,38.31z"/>
<polygon class="st0" points="167.78,5.12 192.83,139.03 325.77,164.07 195.72,189.12 170.19,325.43 143.7,192.01 6.9,165.28 
	141.77,140.95 "/>
</svg>
